<svg version="1.2" xmlns="http://www.w3.org/2000/svg" viewBox="0 0 94 106" width="94" height="106"><style>.a{fill:#101012}</style><path fill-rule="evenodd" class="a" d="m2.1 20.2q-0.1 0.3 0.2 0.6 0.3 0.3 0.8 0.2 0.4-0.1 1.5-0.8 1.2-0.7 2.2-0.8 0.9-0.1 1.8 0.8 0.9 0.9 0.8 2.1-0.1 1.2-1.1 2.3-1.5 1.6-4 1.7l-0.2-1.9q2-0.2 2.9-1.1 0.4-0.4 0.4-0.8 0.1-0.4-0.2-0.7-0.3-0.3-0.7-0.2-0.4 0-1.3 0.6-1.4 0.9-2.4 1-1 0.1-1.9-0.8-1-0.9-0.8-2.1 0.1-1.2 1.1-2.2 0.7-0.7 1.5-1.1 0.9-0.5 1.8-0.6l0.4 1.8q-1.5 0.3-2.4 1.2-0.4 0.4-0.4 0.8zm8.6-7.6l4.4 6.1-1.7 1.2-4.4-6.1-2.1 1.6-1.1-1.5 6-4.3 1 1.5zm9.8-7.5l0.8 1.6-4.2 2.1 0.9 1.7 3.7-1.9 0.8 1.6-3.7 1.9 0.8 1.7 4.3-2.1 0.8 1.6-6.1 3.1-4.1-8.4zm9.6-2.3q1.2 0.5 1.7 2.1 0.5 1.7-0.2 2.8-0.7 1-2.7 1.6l-1.2 0.4 0.8 2.4-2 0.6-2.7-8.9 3.1-0.9q2.1-0.6 3.2-0.1zm-0.4 3.9q0.3-0.5 0-1.2-0.2-0.8-0.7-1-0.6-0.2-1.6 0.1l-1.1 0.4 0.9 2.9 1.3-0.4q1-0.3 1.2-0.8zm10-6.3l2.1-0.3 1.1 9.2-2 0.3-0.5-3.6-3.7 0.4 0.5 3.6-2.1 0.3-1.1-9.2 2.1-0.3 0.4 3.9 3.7-0.5zm12.6 0l-0.1 1.8-4.6-0.2-0.1 1.9 4.2 0.2-0.1 1.8-4.2-0.2-0.1 1.9 4.8 0.2-0.1 1.8-6.8-0.2 0.4-9.3zm9.9 1.7l2 0.5-1.9 9.1-2.1-0.5-3-6.6-1.3 5.7-2-0.5 2-9 1.9 0.4 3.1 6.8zm7.1 4.3q-0.3 0.1-0.5 0.5-0.2 0.3 0.1 0.7 0.2 0.3 1.3 1.2 1.1 0.8 1.6 1.6 0.4 0.9-0.1 2.1-0.5 1.1-1.6 1.5-1.2 0.4-2.6-0.2-2.1-0.9-3.1-3.1l1.8-0.9q0.8 1.8 2 2.3 0.5 0.2 0.9 0.1 0.4-0.1 0.6-0.5 0.2-0.4-0.1-0.7-0.2-0.4-1-1-1.4-1-1.8-1.9-0.5-0.8 0-2 0.5-1.3 1.7-1.6 1.1-0.3 2.4 0.3 0.9 0.3 1.6 1 0.8 0.7 1.2 1.5l-1.6 1q-0.7-1.4-1.9-1.9-0.5-0.1-0.9 0zm10.2 12.6q-1.9 0.4-3.6-0.8-1.8-1.1-2.2-3-0.4-2 0.7-3.7 1.2-1.7 3.1-2.1 1.9-0.3 3.6 0.8 1.8 1.1 2.2 3.1 0.4 1.9-0.7 3.6-1.1 1.7-3.1 2.1zm1.3-3.3q0.7-1 0.5-2.2-0.2-1.1-1.1-1.8-1-0.6-2.2-0.3-1.1 0.3-1.8 1.3-0.7 1-0.5 2.2 0.2 1.2 1.2 1.8 0.9 0.7 2.1 0.4 1.1-0.3 1.8-1.4zm11.8 4.7l1.4 1.5-6.8 6.4-1.4-1.5 1.2-7.3-4.2 4-1.5-1.5 6.8-6.4 1.3 1.5-1.2 7.4zm-87.5 66.5l4.7-3.1 1.7 1.4-2.2 5.2 4.8-3 1.8 1.4-8.5 5.1-1.1-0.9 2.5-6.3-5.7 3.7-1.2-1 3.5-9.2 1.7 1.4zm18.3 5.5l-0.8 1.6-4.2-2-0.8 1.7 3.7 1.8-0.8 1.6-3.7-1.9-0.9 1.8 4.3 2.1-0.8 1.7-6.2-3.1 4.2-8.3zm3.3 10.9l-3.8-1.2 2.7-8.9 3.5 1.1q0.9 0.3 1.4 0.7 0.6 0.4 0.8 0.9 0.4 0.9 0.2 1.7-0.4 1.1-1.2 1.4-0.3 0.1-0.4 0.1-0.1 0-0.3 0 0.7 0.5 1.1 1.2 0.3 0.7 0 1.5-0.3 1-1.1 1.5-1 0.6-2.9 0zm-1.3-2.2l1.3 0.4q0.9 0.2 1.4 0.2 0.5-0.1 0.6-0.7 0.2-0.7-0.2-1-0.4-0.3-1.3-0.6l-1.2-0.4zm1.1-3.6l0.9 0.3q0.9 0.2 1.3 0.2 0.5-0.1 0.7-0.7 0.1-0.6-0.2-0.9-0.3-0.3-1.2-0.5l-0.9-0.3zm18.9 0.6q1.2 1.3 1.1 3.5-0.1 2.2-1.5 3.3-1.4 1.2-4 1l-3.2-0.2 0.6-9.2 3.2 0.2q2.5 0.1 3.8 1.4zm-1.9 5.4q0.8-0.6 0.9-2 0.1-1.4-0.6-2.1-0.7-0.8-2.3-0.9l-1.2-0.1-0.3 5.6 1.3 0.1q1.4 0.1 2.2-0.6zm12.1-7.3l0.2 1.8-4.6 0.5 0.2 1.9 4.1-0.4 0.2 1.7-4.2 0.4 0.2 2 4.8-0.5 0.2 1.8-6.8 0.7-1-9.2zm4.9 0.8q-0.3 0.3-0.2 0.7 0.1 0.4 0.5 0.5 0.5 0.1 1.8 0.1 1.4 0 2.3 0.4 0.8 0.5 1.1 1.7 0.4 1.2-0.3 2.2-0.8 1-2.2 1.4-2.2 0.5-4.3-0.6l0.8-1.8q1.8 0.9 3 0.6 0.6-0.2 0.8-0.5 0.3-0.3 0.2-0.7-0.1-0.4-0.5-0.6-0.4-0.1-1.5-0.1-1.6 0-2.5-0.4-0.9-0.4-1.2-1.7-0.4-1.2 0.4-2.2 0.7-0.9 2.1-1.3 0.9-0.2 1.9-0.1 1 0.1 1.8 0.4l-0.7 1.8q-1.4-0.6-2.6-0.3-0.5 0.1-0.7 0.5zm5.7-3.7l2-0.8 3.4 8.6-2 0.8zm11.9-0.7l1.8-1 1.6 2.9q-0.4 2-2.6 3.2-1.8 1-3.6 0.5-1.9-0.5-2.9-2.3-1-1.8-0.5-3.7 0.6-1.9 2.3-2.9 1.8-0.9 3.7-0.5l-0.2 1.9q-0.8-0.2-1.3-0.1-0.6 0-1.1 0.3-1.1 0.6-1.4 1.7-0.3 1.1 0.4 2.3 0.6 1.1 1.7 1.4 1 0.3 2-0.2 0.9-0.5 1.3-1.2zm6.4-10.7l1.5-1.3 6.2 6.9-1.6 1.4-7.1-1.4 3.8 4.3-1.5 1.4-6.2-7 1.5-1.2 7.3 1.4zm-76.2-32.2q0.2 0.3 0.6 0.3 0.4 0 0.6-0.3 0.2-0.3 0.2-0.8v-2.3h1v2.3q0 0.9-0.5 1.4-0.5 0.5-1.3 0.5-0.8 0-1.3-0.5-0.5-0.5-0.5-1.4v-2.3h0.9v2.3q0 0.5 0.3 0.8zm6.2-3.1h0.9v4.1h-0.9l-2-2.5v2.5h-0.9v-4.1h0.9l2 2.7zm3.7 0.8v3.3h-1v-3.3h-1.1v-0.8h3.2v0.8zm54.6 2.2q0.2 0.3 0.6 0.3 0.4 0 0.6-0.3 0.2-0.3 0.2-0.8v-2.2h1v2.3q0 0.9-0.5 1.3-0.5 0.5-1.3 0.5-0.8 0-1.3-0.5-0.5-0.4-0.5-1.3v-2.3h1v2.2q0 0.5 0.2 0.8zm6.2-3h0.9v4.1h-0.9l-2-2.6v2.6h-0.9v-4.1h0.9l2 2.6zm3.7 0.8v3.3h-1v-3.3h-1.1v-0.8h3.2v0.8zm-13 20.4c-0.9 0.5-2.5 0.3-4.3-0.2-3.6 6.1-10.8 10.3-19.1 10.3-8.2 0-15.4-4.2-19-10.3-1.8 0.5-3.4 0.7-4.3 0.2-2.2-1.1-0.2-7.3 1.7-10.5 0.5-0.9 0.9-1.5 1.4-1.9 0.3-0.2 0.7-0.6 1.5 0.7 0.5 0.9 1.2 1.7 1.9 2.2 3 2.5 6.8 2.2 6 4-0.6 1-2.1 2.3-3.9 3.3 2.6 4 7.1 6.8 12.5 7.4v-17.8h-3.4v-3.6h3.4v-3.6h-10l2.3-4.2h7.7v-4.2c-2.7-0.9-4.6-3.5-4.6-6.5 0-3.8 3-6.9 6.8-6.9 3.8 0 6.9 3.1 6.9 6.9 0 3-1.9 5.6-4.6 6.5v4.2h7.7l2.2 4.2h-9.9v3.6h3.4v3.6h-3.4v17.8c5.3-0.6 9.9-3.4 12.4-7.4-1.8-1-3.3-2.3-3.8-3.3-0.9-1.8 3-1.5 6-4 0.7-0.6 1.4-1.3 1.9-2.2 0.8-1.3 1.2-0.9 1.5-0.7 0.4 0.4 0.9 1.1 1.4 1.9 1.9 3.3 3.8 9.4 1.7 10.5zm-23.4-32.4c1.3 0 2.3-1 2.3-2.3 0-1.2-1-2.2-2.3-2.2-1.2 0-2.2 1-2.2 2.2 0 1.3 1 2.3 2.2 2.3zm-26.5 19.1h-13.2v-2h13.2zm64.4 0h-13.1v-2.1h13.1z"/></svg>