<svg version="1.2" xmlns="http://www.w3.org/2000/svg" viewBox="0 0 133 106" width="133" height="106"><style>.a{fill:#101012}</style><path fill-rule="evenodd" class="a" d="m55.3 78.7q0.9 0.8 0.9 2.2 0 1.4-0.8 2.2-0.9 0.8-2.6 0.8h-2.1v-6h2.2q1.6 0 2.4 0.8zm-0.9 3.6q0.4-0.5 0.4-1.4 0-0.9-0.4-1.3-0.5-0.5-1.6-0.5h-0.7v3.6h0.8q1 0 1.5-0.4zm7.3-4.4v1.2h-3v1.2h2.7v1.2h-2.7v1.2h3.1v1.2h-4.4v-6zm2.6 1.2q-0.1 0.2-0.1 0.4 0 0.3 0.2 0.5 0.2 0.1 1.1 0.3 0.8 0.2 1.3 0.6 0.5 0.5 0.5 1.3 0 0.8-0.6 1.3-0.6 0.5-1.6 0.5-1.4 0-2.6-1.1l0.8-0.9q1 0.8 1.8 0.8 0.4 0 0.6-0.2 0.2-0.1 0.2-0.4 0-0.3-0.2-0.4-0.3-0.2-0.9-0.3-1.1-0.3-1.5-0.7-0.5-0.4-0.5-1.2 0-0.9 0.6-1.4 0.6-0.4 1.5-0.4 0.6 0 1.2 0.2 0.6 0.2 1.1 0.6l-0.7 0.9q-0.8-0.5-1.6-0.5-0.4 0-0.6 0.1zm4.1-1.2h1.4v6h-1.4zm6.7 3h1.4v2.1q-0.9 1-2.5 1-1.3 0-2.2-0.9-0.9-0.9-0.9-2.2 0-1.3 0.9-2.2 0.9-0.9 2.2-0.9 1.3 0 2.3 0.8l-0.7 1q-0.4-0.3-0.8-0.4-0.3-0.2-0.7-0.2-0.8 0-1.3 0.5-0.5 0.6-0.5 1.4 0 0.9 0.5 1.4 0.5 0.5 1.2 0.5 0.7 0 1.1-0.3zm6.8-2.9h1.3v6h-1.3l-2.9-3.8v3.8h-1.3v-6h1.2l3 3.8zm-46.9-27.4v-1.6h4.4v5.5q0 1.6-0.7 2.3-0.8 0.8-2.1 0.8-1.5 0-2.6-1.2l1-1.4q0.7 0.8 1.6 0.8 0.4 0 0.6-0.3 0.3-0.3 0.3-0.9v-4zm13.6 5.7q-1.2 1.3-3.1 1.3-1.9 0-3.2-1.3-1.3-1.2-1.3-3.1 0-1.9 1.3-3.2 1.3-1.2 3.2-1.2 1.9 0 3.1 1.2 1.3 1.3 1.3 3.2 0 1.9-1.3 3.1zm-0.6-3.1q0-1.2-0.7-2-0.8-0.8-1.8-0.8-1.1 0-1.8 0.8-0.8 0.8-0.8 2 0 1.1 0.8 1.9 0.7 0.8 1.8 0.8 1 0 1.8-0.8 0.7-0.8 0.7-1.9zm8.8-4.2h1.9v8.5h-1.9v-3.4h-3.4v3.4h-1.9v-8.5h1.9v3.5h3.4zm10 0h1.9v8.5h-1.9l-4.1-5.3v5.3h-1.9v-8.5h1.8l4.2 5.5zm13.7 1.1q1.2 1.1 1.2 3.1 0 2-1.2 3.2-1.2 1.1-3.6 1.1h-2.9v-8.5h3q2.3 0 3.5 1.1zm-1.4 5.1q0.7-0.7 0.7-1.9 0-1.3-0.7-2-0.7-0.6-2.2-0.6h-1v5.1h1.2q1.3 0 2-0.6zm11.4 1.1q-1.3 1.3-3.2 1.3-1.9 0-3.2-1.3-1.2-1.2-1.2-3.1 0-1.9 1.2-3.1 1.3-1.3 3.2-1.3 1.9 0 3.2 1.3 1.3 1.2 1.3 3.1 0 1.9-1.3 3.1zm-0.6-3.1q0-1.1-0.8-1.9-0.7-0.8-1.8-0.8-1 0-1.8 0.8-0.7 0.8-0.7 1.9 0 1.2 0.7 2 0.8 0.7 1.8 0.7 1.1 0 1.8-0.7 0.8-0.8 0.8-2zm9.6-4.2v1.7h-4.2v1.8h3.8v1.6h-3.8v1.7h4.4v1.7h-6.3v-8.5zm13.1 27.4v0.1c-0.1 1.9-1.2 3.9-2.8 4.9l-40.5 23.3c-0.8 0.5-1.8 0.7-2.8 0.7-1 0-2-0.2-2.8-0.7l-40.5-23.3c-1.6-1-2.7-3-2.8-4.9v-8.5h-8.1v-11.4h-11.4l6.9-12.9-7-12.3h19.6v-1.6c0.1-1.9 1.2-3.9 2.8-4.9l40.5-23.3c0.8-0.5 1.8-0.7 2.8-0.7 1 0 2 0.2 2.8 0.7l40.5 23.3c1.6 1 2.7 3 2.8 4.9v9.2h8.1v12.2h12.3l-6.9 12.8 7 12.4zm8-23.2v14.8h-8v6.4h17.1l-5.9-10.3 5.9-10.9zm-98.1-23.4v9.2h87.9v-9.2c0.1-1-0.9-2.6-1.8-3.1l-40.4-23.3c-0.4-0.2-1.1-0.4-1.8-0.4-0.6 0-1.3 0.2-1.7 0.4l-40.4 23.3c-0.9 0.5-1.9 2.1-1.8 3.1zm-10.2 24.8v-15.6h8.1v-5.6h-16.2l5.8 10.3-5.9 10.9zm106.2 11.3v-24.8h-104v24.8zm-8.1 2.1h-87.9v8.5c-0.1 1 0.9 2.6 1.7 3.1l40.5 23.3c0.4 0.2 1 0.4 1.7 0.4 0.7 0 1.4-0.2 1.8-0.4l40.4-23.3c0.9-0.5 1.8-2.1 1.8-3.1zm-35.8-40c-0.3 0.1-0.8 0.1-1.4-0.1-1.2 2-3.6 3.4-6.3 3.4-2.7 0-5.1-1.4-6.3-3.4-0.6 0.2-1.1 0.2-1.4 0.1-0.7-0.4-0.1-2.4 0.5-3.5q0.3-0.4 0.5-0.6c0.1-0.1 0.2-0.2 0.5 0.2q0.3 0.5 0.6 0.7c1 0.9 2.3 0.8 2 1.4-0.2 0.3-0.7 0.7-1.3 1 0.9 1.4 2.4 2.3 4.1 2.5v-5.9h-1.1v-1.2h1.1v-1.2h-3.2l0.7-1.4h2.5v-1.3c-0.8-0.3-1.5-1.2-1.5-2.2 0-1.2 1-2.2 2.3-2.2 1.2 0 2.2 1 2.2 2.2 0 1-0.6 1.9-1.5 2.2v1.3h2.6l0.7 1.4h-3.3v1.2h1.1v1.2h-1.1v5.9c1.8-0.2 3.3-1.1 4.1-2.4-0.6-0.4-1.1-0.8-1.2-1.1-0.3-0.6 1-0.5 2-1.4q0.3-0.2 0.6-0.7c0.2-0.4 0.4-0.3 0.5-0.2q0.2 0.2 0.4 0.6c0.7 1.1 1.3 3.1 0.6 3.5zm-7.7-10.7c0.4 0 0.7-0.4 0.7-0.8 0-0.4-0.3-0.7-0.7-0.7-0.4 0-0.8 0.3-0.8 0.7 0 0.4 0.4 0.8 0.8 0.8z"/></svg>