<svg version="1.2" xmlns="http://www.w3.org/2000/svg" viewBox="0 0 127 105" width="127" height="105"><style>.a{fill:#101012}</style><path fill-rule="evenodd" class="a" d="m47 26.6v0.2q-0.6 4.5-0.7 5.5-0.3 1.8-0.3 2.7 0 0.9 0.7 0.9 0.7 0 1.2-1 0.5-0.9 0.7-2.3 0.6-2.9 0.6-5 0-1-0.2-1.7 0.6-0.4 1.5-0.4 0.8 0 0.8 1.1 0 1.5-0.4 4.8-0.4 2.7-1.2 3.9-0.3 0.6-0.7 1-0.8 1-2.4 1-1.5 0-2.2-1.3-0.8 1.3-2.6 1.3-1.1 0-1.7-0.6-0.6-0.6-0.6-1.7 0-0.1 0.1-0.4l0.5-4.3q-1.6-1.2-1.6-2.7 0-0.9 0.6-1.5 0.7-0.5 1.6-0.5 2 0 2 2 0 0 0 0 0 0.1 0 0.2 0 0.1-0.1 0.2 0 0.1 0 0.4-0.1 0.3-0.1 0.6 0 0.3-0.1 0.8-0.1 0.5-0.2 1.1-0.1 0.6-0.2 1.5-0.1 0.9-0.2 1.5-0.1 0.6-0.1 0.9 0 1 0.8 1 1.1 0 1.4-2l0.9-7.7q0.6-0.3 1.3-0.3 0.9 0 0.9 0.8zm-6.9 0.2q-0.3 0-0.4 0.2-0.2 0.2-0.2 0.5 0 0.7 0.8 1.4l0.1-0.6q0-0.5 0-1 0-0.5-0.3-0.5zm12.7 3.2q0.4-0.1 0.9-0.1 0.4 0 0.7 0.1-0.6 4.6-0.6 4.7-0.1 0.3-0.1 0.5 0 0.2 0.1 0.3 0 0.4 0.5 0.4 0.5 0 0.9-0.6 0.1-0.1 0.1-0.1 0.1-1 0.8-7.1 0.2-1.8 1.2-2.3 0.4-0.2 1-0.2 2 0 2 1.8 0 0.2 0 0.4-0.2 2-2.6 4.1-0.1 0.8-0.1 1.5-0.2 1.6-0.2 1.8 0 0.8 0.7 0.8 0.7 0 1.4-0.9 0.4-0.5 0.6-1.2 0.2-1.8 0.7-5.8 0.2-1.8 1.2-2.3 0.4-0.2 1-0.2 2 0 2 1.8 0 0.2 0 0.4-0.2 2-2.6 4.1-0.1 0.8-0.1 1.5-0.2 1.6-0.2 1.8 0 0.8 0.7 0.8 0.7 0 1.4-0.9 0.3-0.4 0.5-1l0.5-3.7q0.1-0.2 0.6-0.4 0.4-0.1 0.8-0.1 0.4 0 0.8 0.1-0.6 4.6-0.6 4.7-0.1 0.3-0.1 0.5 0 0.2 0 0.3 0.1 0.4 0.6 0.4 0.5 0 0.9-0.6 0-0.1 0-0.1-0.1-0.4-0.1-0.9 0-2 1.2-3.2 1.2-1.2 3-1.2 0.1 0 0.1 0 0.8 0 1.4 0.2 0.4-0.2 1-0.2 0.6 0 0.9 0.1-0.2 1.2-0.3 2.2-0.2 1.1-0.2 1.6-0.2 1.1-0.2 1.5 0 0.6 0.5 0.6 0.4 0 0.8-0.5 0.4-0.4 0.7-1.3l0.5-4.1q0.6-0.1 1-0.1 0.9 0 1 0.6 0.8-0.6 1.7-0.6 1.7 0 2.2 1 0.8-1.1 2.2-1.1 1 0 1.6 0.6 0.6 0.5 0.6 1.3 0 0.2-0.1 0.8-0.3 2.3-0.3 2.7 0 0.7 0.4 0.7 0.4 0 0.9-0.5 0.4-0.5 0.7-1.6 0.5 0.5 0.7 0.9-0.8 2.6-2.9 2.6-0.9 0-1.4-0.6-0.4-0.5-0.4-1.2l0.3-3.4q0-0.4-0.2-0.7-0.2-0.2-0.7-0.3-0.4 0-0.8 0.4-0.4 0.4-0.5 0.9-0.4 3.9-0.6 4.8h-2l0.6-5.1q0-0.4-0.2-0.7-0.2-0.2-0.7-0.3-0.5 0.1-0.9 0.5-0.3 0.5-0.4 1.1-0.6 3.8-0.6 4.5h-2.1l0.1-0.6q-0.1 0.1-0.2 0.1-0.7 0.6-1.5 0.6-1.4 0-1.9-1-0.8 1-2 1-1.3 0-2.1-0.8-0.2-0.1-0.3-0.3-0.1 0.2-0.3 0.4-0.7 0.8-1.8 0.8-1 0-1.5-0.6-0.3-0.3-0.4-0.7-0.4 0.5-1 0.8-0.8 0.5-1.7 0.5-0.9 0-1.5-0.6-0.3-0.3-0.5-0.8-0.4 0.5-1 0.9-0.8 0.5-1.7 0.5-0.9 0-1.5-0.6-0.1-0.1-0.2-0.3-0.1 0-0.2 0.1-0.7 0.8-1.7 0.8-1 0-1.5-0.6-0.5-0.5-0.5-1.3 0-0.1 0-0.3l0.5-4.8q0.2-0.2 0.6-0.4zm0.1-4.1q0.3-0.3 0.8-0.3 0.5 0 0.9 0.3 0.3 0.4 0.3 0.9 0 0.5-0.3 0.9-0.4 0.3-0.9 0.3-0.5 0-0.8-0.3-0.4-0.4-0.4-0.9 0-0.5 0.4-0.9zm5 4.5q1.4-1.5 1.4-2.8 0-0.7-0.5-0.7-0.4 0-0.5 0.5-0.1 0.4-0.2 1.4-0.1 0.9-0.2 1.2zm4.7 0q1.5-1.6 1.5-2.8-0.1-0.8-0.6-0.8-0.4 0.1-0.5 0.5-0.1 0.4-0.2 1.4-0.1 1-0.1 1.2zm3.2-4.5q0.3-0.3 0.9-0.3 0.5 0 0.8 0.3 0.4 0.4 0.4 0.9 0 0.5-0.4 0.8-0.3 0.4-0.8 0.4-0.6 0-0.9-0.4-0.4-0.3-0.4-0.8 0-0.5 0.4-0.9zm6.7 5.1q-0.9 0-1.5 0.8-0.6 0.7-0.7 2.2 0 0.1 0 0.3 0 0.7 0.3 1.2 0.4 0.4 1 0.4 0.9 0 1.4-1.4l0.4-3.3q-0.4-0.2-0.9-0.2zm-41.5 57.3q0-0.8-0.5-1.2l-0.8-0.5q-0.8-0.6-0.8-1.7 0-1 0.4-1.4 0.3-0.4 0.9-0.4 0.7 0 1 0.4 0.4 0.3 0.5 1.3l-0.7 0.1q-0.1-1.2-0.7-1.2-0.7 0-0.7 1 0 0.5 0.1 0.8 0.1 0.2 0.4 0.5l0.7 0.5q0.3 0.2 0.4 0.4 0.2 0.1 0.3 0.5 0.2 0.4 0.2 0.9 0 0.8-0.4 1.2-0.4 0.4-1 0.4-0.7 0-1.1-0.5-0.3-0.4-0.4-1.5l0.7-0.1q0 0.8 0.2 1.1 0.2 0.3 0.5 0.3 0.8 0 0.8-0.9zm3.7 1.4v-6.4h0.7v6.4zm4.6 0h-0.7v-6.4h0.8l1.5 4.7v-4.7h0.7v6.4h-0.7l-1.6-4.7zm6.3-0.7q0.2 0.2 0.5 0.2 0.3 0 0.5-0.2 0.1-0.2 0.2-0.9l0.6 0.1q-0.1 0.9-0.4 1.3-0.3 0.3-1 0.3-0.6 0-1-0.4-0.3-0.5-0.3-1.7v-2.5q0-1.2 0.3-1.6 0.4-0.5 1-0.5 0.7 0 1 0.3 0.3 0.4 0.4 1.2l-0.7 0.2q0-0.6-0.2-0.9-0.1-0.2-0.4-0.2-0.3 0-0.5 0.3-0.2 0.3-0.2 1.1v2.8q0 0.8 0.2 1.1zm5.4-2.2v2.3h1.6v0.6h-2.3v-6.4h2.3v0.5h-1.6v2.4h1.5v0.6zm11.5-11.5h-0.7v-6.5h1.1l0.8 4.5 0.8-4.5h1.1v6.5h-0.7v-5.8l-0.8 4.4h-0.8l-0.8-4.4zm0.3 22.6l0.9 5.4 1-5.4h0.7l-1.2 6.5h-0.9l-1.2-6.5zm12.7-14.4q0.3-0.4 1-0.4 0.6 0 1 0.3 0.3 0.4 0.3 1.2 0 0.9-0.5 1.8l-1.7 2.7h2.2v0.6h-2.8v-0.5q0-0.4 0.2-0.8 0.2-0.4 0.7-1.2l0.7-1.2q0.5-0.6 0.5-1.4 0-0.5-0.2-0.7-0.2-0.2-0.5-0.2-0.3 0-0.5 0.2-0.1 0.3-0.2 1l-0.6-0.1q0-1 0.4-1.3zm8.1 1.7v2.6q0 1.1-0.3 1.6-0.4 0.4-1.1 0.4-0.7 0-1.1-0.4-0.4-0.5-0.4-1.6v-2.6q0-1.2 0.4-1.7 0.4-0.4 1.1-0.4 0.7 0 1.1 0.4 0.3 0.5 0.3 1.7zm-0.7 2.7v-2.9q0-1.3-0.7-1.3-0.3 0-0.5 0.3-0.2 0.3-0.2 1v2.9q0 0.7 0.2 1 0.2 0.3 0.5 0.3 0.7 0 0.7-1.3zm6.5-2.7v2.6q0 1.1-0.3 1.6-0.4 0.4-1.1 0.4-0.7 0-1.1-0.4-0.3-0.5-0.3-1.6v-2.6q0-1.2 0.3-1.7 0.4-0.4 1.1-0.4 0.7 0 1.1 0.4 0.3 0.5 0.3 1.7zm-0.7 2.7v-2.9q0-1.3-0.7-1.3-0.3 0-0.5 0.3-0.2 0.3-0.2 1v2.9q0 0.7 0.2 1 0.2 0.3 0.5 0.3 0.7 0 0.7-1.3zm5.3-2q0.5 0 0.9 0.4 0.4 0.5 0.4 1.6 0 1.1-0.4 1.5-0.4 0.4-1.1 0.4-0.7 0-1.1-0.4-0.3-0.4-0.3-1.6v-2.6q0-1.2 0.4-1.7 0.3-0.4 1-0.4 0.6 0 0.9 0.3 0.4 0.3 0.4 1.2l-0.6 0.2q-0.1-0.6-0.2-0.9-0.2-0.2-0.5-0.2-0.3 0-0.5 0.3-0.2 0.3-0.2 1v1.2q0.3-0.3 0.9-0.3zm0.6 2.1v-0.3q0-1.2-0.8-1.2-0.7 0-0.7 1.2v0.3q0 1.2 0.7 1.2 0.8 0 0.8-1.2zm-13.4 13.8l-1.7 0.4h-0.1l-0.4 1.8-0.4-0.1 0.4-1.8-0.6-0.6-0.3 1.6-0.5-0.1 0.4-1.9-0.6-0.6-0.3 1.6-0.5-0.1 0.4-1.9-0.5-0.5-0.4 1.6-0.4-0.1 0.4-1.9-12.4-12.3-12.2 12.4 0.4 1.8-0.5 0.1-0.3-1.5-0.6 0.6 0.4 1.8-0.4 0.1-0.4-1.6-0.5 0.6 0.4 1.8-0.5 0.1-0.3-1.5-0.6 0.6 0.4 1.8-0.4 0.1-0.4-1.8h-0.1l-1.8-0.4 0.1-0.4 1.9 0.4 0.5-0.6-1.6-0.4 0.1-0.4 1.9 0.4 0.6-0.6-1.6-0.3 0.1-0.5 1.9 0.4 0.5-0.5-1.5-0.4 0.1-0.4 1.8 0.4 12.3-12.4-14.6-14.5-0.5 1.7-2.1-4.6 4.6 2-1.6 0.6 14.5 14.5 14.5-14.6-1.6-0.6 4.5-2-1.9 4.6-0.7-1.6-14.4 14.5 12.3 12.2 1.8-0.4 0.1 0.5-1.5 0.3 0.6 0.6 1.8-0.4 0.1 0.5-1.6 0.3 0.6 0.6 1.8-0.4 0.1 0.4-1.5 0.4 0.6 0.5 1.8-0.4zm-36-47.4q0.2 1.3-0.5 1.4h-0.5l-0.7-5.2 0.5-0.1q0.8-0.1 0.9 1.2zm-8.7 10.6l0.9 2.3c-6 1.1-11.7 2.6-16.8 4.4l-0.4-10.3-6.2-7.3q4.3-1.3 8.7-2.5l4.8 15.5q4.3-1.2 9-2.1zm47.3-13.9q0.1 0.3 0 1v0.3q-0.2 1.2-0.9 1.2l-0.4-0.1 0.4-2.8 0.4 0.1q0.3 0 0.5 0.3zm15.2 14.6c-10.5-2.8-22.8-4.4-36-4.4-12.3 0-23.8 1.4-33.8 3.9l-5-18c11.8-2.8 25-4.4 38.8-4.4 14.8 0 28.8 1.7 41.2 4.9zm-53.1-11.5l-0.2-2.3q-0.2-1.2-0.6-1.6-0.4-0.4-1.1-0.3l-1.3 0.2 0.8 6.4 1.2-0.2q0.7-0.1 1.1-0.6 0.3-0.4 0.1-1.6zm5.7 1.5l-0.1-0.5-1.6 0.1-0.2-2.3 1.5-0.2-0.1-0.5-1.4 0.1-0.2-2.4 1.6-0.1-0.1-0.6-2.3 0.2 0.5 6.4zm5.7-1.7q-0.1-0.5-0.2-0.9-0.2-0.4-0.3-0.5-0.2-0.2-0.5-0.3l-0.7-0.6q-0.3-0.2-0.4-0.4-0.1-0.3-0.2-0.7 0-1 0.6-1.1 0.7 0 0.8 1.2l0.7-0.2q-0.1-0.9-0.5-1.3-0.4-0.3-1-0.3-0.6 0-1 0.4-0.3 0.4-0.3 1.4 0.1 1.1 0.9 1.7l0.8 0.5q0.5 0.4 0.5 1.1 0.1 1-0.6 1-0.4 0-0.6-0.3-0.2-0.3-0.3-1.1l-0.6 0.2q0.1 1 0.5 1.4 0.4 0.5 1 0.4 0.7 0 1-0.4 0.4-0.4 0.4-1.2zm3.8 1.3l-0.1-6.4h-0.8l0.1 6.4zm5.9-3.3l-1.4-0.1v0.6h0.7v1.2q0 1.2-0.7 1.2-0.3 0-0.5-0.3-0.2-0.3-0.2-1l0.1-2.9q0-0.8 0.2-1.1 0.2-0.2 0.5-0.2 0.2 0 0.4 0.2 0.1 0.2 0.2 0.8l0.7-0.1q-0.1-0.9-0.4-1.2-0.3-0.3-1-0.3-0.6 0-1 0.4-0.3 0.4-0.4 1.7v2.5q0 1.2 0.3 1.6 0.3 0.5 0.9 0.5 0.7 0 1-0.7l0.1 0.6h0.5zm6.4-2.8h-0.7l-0.3 4.7-1.2-4.8-0.8-0.1-0.4 6.5h0.8l0.2-4.7 1.3 4.8 0.7 0.1zm5.8 0.4l-2.3-0.2-0.6 6.4 2.3 0.3v-0.6l-1.6-0.2 0.3-2.3 1.4 0.1v-0.6l-1.4-0.1 0.2-2.3 1.6 0.1zm5.4 1.1q-0.3-0.5-1-0.6l-1.1-0.1-0.9 6.4 0.7 0.1 0.4-2.5 0.4 0.1 0.4 2.5 0.7 0.1-0.4-2.7q0.8-0.3 0.9-1.7 0.2-1.1-0.1-1.6zm29.9 3.8l-6.2 7.3-0.3 10.3c-5.2-1.8-10.8-3.3-16.8-4.4l0.8-2.3q4.8 0.9 9.1 2.1l4.7-15.5q4.5 1.1 8.7 2.5zm-104-23.6q-1-1.3-2.5-1.2l-2 0.2q-2.2 0.2-3.9-1.7-1.5-1.6-1.4-2.7 0-1.2 1.1-2.2 1-0.9 2.1-0.8 1.1 0.1 2.6 1.5l-0.9 1.3q-1.8-1.9-2.9-1-1.1 1 0.4 2.7 0.7 0.7 1.2 1 0.6 0.3 1.4 0.3l2-0.2q0.7 0 1.2 0 0.5 0 1.3 0.4 0.8 0.4 1.5 1.3 1.3 1.4 1.2 2.6-0.1 1.2-1.2 2.1-1.1 1-2.3 0.8-1.2-0.1-3-1.8l1-1.2q1.2 1.2 2 1.5 0.8 0.3 1.4-0.2 1.2-1.1-0.3-2.7zm0.9-13l-0.7-1.2 4.7-3 0.7 1.1-1.7 1.1 7 11-1.3 0.9-7-11zm15.9-1.5l2.1 4.7 3.2-1.4 0.6 1.2-4.8 2.1-5.8-13.1 4.6-2.1 0.6 1.2-3.2 1.4 2.1 4.8 2.9-1.3 0.6 1.2zm12.2 2.2l-3.9-13.8 2.5-0.7q1.4-0.4 2.5 0.4 1.1 0.7 1.8 3.2v0.1q0.7 2.5 0.2 3.7-0.6 1.1-2.1 1.6l-0.8 0.2 1.3 4.9zm1.5-10.2l-0.2-0.6q-0.8-2.9-2.3-2.4l-0.9 0.2 1.8 6.4 0.9-0.2q1.5-0.5 0.7-3.4zm14.9 6.9l-0.8-6.4-3.1 0.3 0.8 6.5-1.6 0.2-1.7-14.3 1.6-0.2 0.8 6.5 3.1-0.3-0.8-6.5 1.6-0.2 1.7 14.2zm10.5-6.8l-0.2 5.2 3.6 0.1v1.3l-5.2-0.2 0.5-14.3 5.1 0.2v1.3l-3.5-0.1-0.2 5.2 3.2 0.1-0.1 1.3zm11.6 7.6l-1.6-0.3 2.7-14.1 1.7 0.4 1.3 10.9 1.9-10.3 1.6 0.3-2.7 14.1-1.7-0.4-1.3-10.9zm17 1.4q0.6-1.5-0.1-2.7l-1.2-1.7q-1.2-1.9-0.3-4.3 0.7-2 1.7-2.5 1.1-0.5 2.4 0 1.3 0.4 1.8 1.5 0.4 1-0.1 3l-1.6-0.2q0.8-2.5-0.5-3-1.4-0.5-2.1 1.6-0.4 0.9-0.4 1.5 0 0.7 0.4 1.4l1.1 1.7q0.4 0.5 0.6 1 0.2 0.5 0.2 1.3 0 0.9-0.4 1.9-0.6 1.9-1.7 2.3-1.1 0.5-2.4 0-1.4-0.5-1.9-1.7-0.4-1.1 0.3-3.5l1.5 0.3q-0.5 1.7-0.4 2.5 0.2 0.8 0.9 1.1 1.5 0.6 2.2-1.5zm16.8 0.7l-2.9 5q-1.3 2.3-2.5 2.8-1.2 0.4-2.6-0.4-1.3-0.7-1.5-2-0.3-1.3 1-3.5l2.9-5.1q1.3-2.2 2.5-2.7 1.2-0.4 2.5 0.3 1.4 0.8 1.6 2.1 0.2 1.3-1 3.5zm-4.5 4.5l3.2-5.5q1.5-2.6 0.1-3.4-0.7-0.4-1.3 0-0.7 0.3-1.6 1.8l-3.1 5.5q-0.9 1.5-0.8 2.3 0 0.7 0.7 1.1 1.4 0.8 2.8-1.8zm6.3 9.1l-1.2-1 9.2-11 1.3 1.1-4.2 10.2 6.7-8 1.3 1-9.2 11-1.3-1.1 4.1-10.2z"/></svg>